<?xml version="1.0" encoding="utf-8" standalone="no"?>
<!DOCTYPE svg PUBLIC "-//W3C//DTD SVG 1.1//EN"
  "http://www.w3.org/Graphics/SVG/1.1/DTD/svg11.dtd">
<!-- Created with matplotlib (http://matplotlib.org/) -->
<svg height="345pt" version="1.1" viewBox="0 0 460 345" width="460pt" xmlns="http://www.w3.org/2000/svg" xmlns:xlink="http://www.w3.org/1999/xlink">
 <defs>
  <style type="text/css">
*{stroke-linecap:butt;stroke-linejoin:round;}
  </style>
 </defs>
 <g id="figure_1">
  <g id="patch_1">
   <path d="M 0 345.6 
L 460.8 345.6 
L 460.8 0 
L 0 0 
z
" style="fill:#ffffff;"/>
  </g>
  <g id="axes_1">
   <g id="patch_2">
    <path d="M 57.6 307.584 
L 414.72 307.584 
L 414.72 41.472 
L 57.6 41.472 
z
" style="fill:#ffffff;"/>
   </g>
   <g id="matplotlib.axis_1">
    <g id="xtick_1">
     <g id="line2d_1">
      <defs>
       <path d="M 0 0 
L 0 3.5 
" id="m49c74b594e" style="stroke:#000000;stroke-width:0.8;"/>
      </defs>
      <g>
       <use style="stroke:#000000;stroke-width:0.8;" x="57.6" xlink:href="#m49c74b594e" y="307.584"/>
      </g>
     </g>
     <g id="text_1">
      <!-- 0.6 -->
      <defs>
       <path d="M 50.484375 30.328125 
Q 50.484375 14.453125 45.0625 6.734375 
Q 39.65625 -0.984375 28.125 -0.984375 
Q 16.75 -0.984375 11.28125 6.5625 
Q 5.8125 14.109375 5.609375 29.109375 
L 5.609375 41.15625 
Q 5.609375 56.84375 11.03125 64.453125 
Q 16.453125 72.078125 28.03125 72.078125 
Q 39.5 72.078125 44.921875 64.71875 
Q 50.34375 57.375 50.484375 42.046875 
z
M 41.453125 42.671875 
Q 41.453125 54.15625 38.234375 59.40625 
Q 35.015625 64.65625 28.03125 64.65625 
Q 21.09375 64.65625 17.921875 59.421875 
Q 14.75 54.203125 14.65625 43.359375 
L 14.65625 28.90625 
Q 14.65625 17.390625 18 11.890625 
Q 21.34375 6.390625 28.125 6.390625 
Q 34.8125 6.390625 38.0625 11.5625 
Q 41.3125 16.75 41.453125 27.875 
z
" id="Roboto-Regular-30"/>
       <path d="M 7.03125 4.734375 
Q 7.03125 7.078125 8.421875 8.640625 
Q 9.8125 10.203125 12.59375 10.203125 
Q 15.375 10.203125 16.8125 8.640625 
Q 18.265625 7.078125 18.265625 4.734375 
Q 18.265625 2.484375 16.8125 0.96875 
Q 15.375 -0.53125 12.59375 -0.53125 
Q 9.8125 -0.53125 8.421875 0.96875 
Q 7.03125 2.484375 7.03125 4.734375 
z
" id="Roboto-Regular-2e"/>
       <path d="M 41.359375 71.140625 
L 41.359375 63.484375 
L 39.703125 63.484375 
Q 29.15625 63.28125 22.90625 57.21875 
Q 16.65625 51.171875 15.671875 40.1875 
Q 21.296875 46.625 31 46.625 
Q 40.28125 46.625 45.828125 40.078125 
Q 51.375 33.546875 51.375 23.1875 
Q 51.375 12.203125 45.390625 5.609375 
Q 39.40625 -0.984375 29.34375 -0.984375 
Q 19.140625 -0.984375 12.796875 6.859375 
Q 6.453125 14.703125 6.453125 27.046875 
L 6.453125 30.515625 
Q 6.453125 50.140625 14.8125 60.515625 
Q 23.1875 70.90625 39.75 71.140625 
z
M 29.5 39.109375 
Q 24.859375 39.109375 20.953125 36.328125 
Q 17.046875 33.546875 15.53125 29.34375 
L 15.53125 26.03125 
Q 15.53125 17.234375 19.484375 11.859375 
Q 23.4375 6.5 29.34375 6.5 
Q 35.453125 6.5 38.9375 10.984375 
Q 42.4375 15.484375 42.4375 22.75 
Q 42.4375 30.078125 38.890625 34.59375 
Q 35.359375 39.109375 29.5 39.109375 
z
" id="Roboto-Regular-36"/>
      </defs>
      <g transform="translate(50.66875 322.084)scale(0.1 -0.1)">
       <use xlink:href="#Roboto-Regular-30"/>
       <use x="56.152344" xlink:href="#Roboto-Regular-2e"/>
       <use x="82.470703" xlink:href="#Roboto-Regular-36"/>
      </g>
     </g>
    </g>
    <g id="xtick_2">
     <g id="line2d_2">
      <g>
       <use style="stroke:#000000;stroke-width:0.8;" x="117.12" xlink:href="#m49c74b594e" y="307.584"/>
      </g>
     </g>
     <g id="text_2">
      <!-- 0.7 -->
      <defs>
       <path d="M 51.8125 66.015625 
L 22.359375 0 
L 12.890625 0 
L 42.234375 63.671875 
L 3.765625 63.671875 
L 3.765625 71.09375 
L 51.8125 71.09375 
z
" id="Roboto-Regular-37"/>
      </defs>
      <g transform="translate(110.18875 322.084)scale(0.1 -0.1)">
       <use xlink:href="#Roboto-Regular-30"/>
       <use x="56.152344" xlink:href="#Roboto-Regular-2e"/>
       <use x="82.470703" xlink:href="#Roboto-Regular-37"/>
      </g>
     </g>
    </g>
    <g id="xtick_3">
     <g id="line2d_3">
      <g>
       <use style="stroke:#000000;stroke-width:0.8;" x="176.64" xlink:href="#m49c74b594e" y="307.584"/>
      </g>
     </g>
     <g id="text_3">
      <!-- 0.8 -->
      <defs>
       <path d="M 49.03125 52.546875 
Q 49.03125 47.21875 46.21875 43.0625 
Q 43.40625 38.921875 38.625 36.578125 
Q 44.1875 34.1875 47.4375 29.59375 
Q 50.6875 25 50.6875 19.1875 
Q 50.6875 9.96875 44.453125 4.484375 
Q 38.234375 -0.984375 28.078125 -0.984375 
Q 17.828125 -0.984375 11.640625 4.515625 
Q 5.46875 10.015625 5.46875 19.1875 
Q 5.46875 24.953125 8.609375 29.59375 
Q 11.765625 34.234375 17.328125 36.625 
Q 12.59375 38.96875 9.859375 43.109375 
Q 7.125 47.265625 7.125 52.546875 
Q 7.125 61.53125 12.890625 66.796875 
Q 18.65625 72.078125 28.078125 72.078125 
Q 37.453125 72.078125 43.234375 66.796875 
Q 49.03125 61.53125 49.03125 52.546875 
z
M 41.65625 19.390625 
Q 41.65625 25.34375 37.859375 29.09375 
Q 34.078125 32.859375 27.96875 32.859375 
Q 21.875 32.859375 18.1875 29.140625 
Q 14.5 25.4375 14.5 19.375 
Q 14.5 13.328125 18.09375 9.859375 
Q 21.6875 6.390625 28.078125 6.390625 
Q 34.421875 6.390625 38.03125 9.875 
Q 41.65625 13.375 41.65625 19.390625 
z
M 28.078125 64.65625 
Q 22.75 64.65625 19.453125 61.359375 
Q 16.15625 58.0625 16.15625 52.390625 
Q 16.15625 46.96875 19.40625 43.625 
Q 22.65625 40.28125 28.078125 40.28125 
Q 33.5 40.28125 36.734375 43.625 
Q 39.984375 46.96875 39.984375 52.390625 
Q 39.984375 57.8125 36.609375 61.234375 
Q 33.25 64.65625 28.078125 64.65625 
z
" id="Roboto-Regular-38"/>
      </defs>
      <g transform="translate(169.70875 322.084)scale(0.1 -0.1)">
       <use xlink:href="#Roboto-Regular-30"/>
       <use x="56.152344" xlink:href="#Roboto-Regular-2e"/>
       <use x="82.470703" xlink:href="#Roboto-Regular-38"/>
      </g>
     </g>
    </g>
    <g id="xtick_4">
     <g id="line2d_4">
      <g>
       <use style="stroke:#000000;stroke-width:0.8;" x="236.16" xlink:href="#m49c74b594e" y="307.584"/>
      </g>
     </g>
     <g id="text_4">
      <!-- 0.9 -->
      <defs>
       <path d="M 40.53125 31.25 
Q 37.703125 27.875 33.765625 25.828125 
Q 29.828125 23.78125 25.140625 23.78125 
Q 19 23.78125 14.421875 26.796875 
Q 9.859375 29.828125 7.375 35.328125 
Q 4.890625 40.828125 4.890625 47.46875 
Q 4.890625 54.59375 7.59375 60.296875 
Q 10.296875 66.015625 15.28125 69.046875 
Q 20.265625 72.078125 26.90625 72.078125 
Q 37.453125 72.078125 43.53125 64.1875 
Q 49.609375 56.296875 49.609375 42.671875 
L 49.609375 40.046875 
Q 49.609375 19.28125 41.40625 9.734375 
Q 33.203125 0.203125 16.65625 -0.046875 
L 14.890625 -0.046875 
L 14.890625 7.5625 
L 16.796875 7.5625 
Q 27.984375 7.765625 33.984375 13.40625 
Q 39.984375 19.046875 40.53125 31.25 
z
M 26.609375 31.25 
Q 31.15625 31.25 34.984375 34.03125 
Q 38.8125 36.8125 40.578125 40.921875 
L 40.578125 44.53125 
Q 40.578125 53.421875 36.71875 58.984375 
Q 32.859375 64.546875 26.953125 64.546875 
Q 21 64.546875 17.375 59.984375 
Q 13.765625 55.421875 13.765625 47.953125 
Q 13.765625 40.671875 17.25 35.953125 
Q 20.75 31.25 26.609375 31.25 
z
" id="Roboto-Regular-39"/>
      </defs>
      <g transform="translate(229.22875 322.084)scale(0.1 -0.1)">
       <use xlink:href="#Roboto-Regular-30"/>
       <use x="56.152344" xlink:href="#Roboto-Regular-2e"/>
       <use x="82.470703" xlink:href="#Roboto-Regular-39"/>
      </g>
     </g>
    </g>
    <g id="xtick_5">
     <g id="line2d_5">
      <g>
       <use style="stroke:#000000;stroke-width:0.8;" x="295.68" xlink:href="#m49c74b594e" y="307.584"/>
      </g>
     </g>
     <g id="text_5">
      <!-- 1.0 -->
      <defs>
       <path d="M 35.59375 0 
L 26.515625 0 
L 26.515625 60.203125 
L 8.296875 53.515625 
L 8.296875 61.71875 
L 34.1875 71.4375 
L 35.59375 71.4375 
z
" id="Roboto-Regular-31"/>
      </defs>
      <g transform="translate(288.74875 322.084)scale(0.1 -0.1)">
       <use xlink:href="#Roboto-Regular-31"/>
       <use x="56.152344" xlink:href="#Roboto-Regular-2e"/>
       <use x="82.470703" xlink:href="#Roboto-Regular-30"/>
      </g>
     </g>
    </g>
    <g id="xtick_6">
     <g id="line2d_6">
      <g>
       <use style="stroke:#000000;stroke-width:0.8;" x="355.2" xlink:href="#m49c74b594e" y="307.584"/>
      </g>
     </g>
     <g id="text_6">
      <!-- 1.1 -->
      <g transform="translate(348.26875 322.084)scale(0.1 -0.1)">
       <use xlink:href="#Roboto-Regular-31"/>
       <use x="56.152344" xlink:href="#Roboto-Regular-2e"/>
       <use x="82.470703" xlink:href="#Roboto-Regular-31"/>
      </g>
     </g>
    </g>
    <g id="xtick_7">
     <g id="line2d_7">
      <g>
       <use style="stroke:#000000;stroke-width:0.8;" x="414.72" xlink:href="#m49c74b594e" y="307.584"/>
      </g>
     </g>
     <g id="text_7">
      <!-- 1.2 -->
      <defs>
       <path d="M 52.484375 0 
L 5.90625 0 
L 5.90625 6.5 
L 30.515625 33.84375 
Q 35.984375 40.046875 38.0625 43.921875 
Q 40.140625 47.796875 40.140625 51.953125 
Q 40.140625 57.515625 36.765625 61.078125 
Q 33.40625 64.65625 27.78125 64.65625 
Q 21.046875 64.65625 17.3125 60.8125 
Q 13.578125 56.984375 13.578125 50.140625 
L 4.546875 50.140625 
Q 4.546875 59.96875 10.859375 66.015625 
Q 17.1875 72.078125 27.78125 72.078125 
Q 37.703125 72.078125 43.453125 66.875 
Q 49.21875 61.671875 49.21875 53.03125 
Q 49.21875 42.53125 35.84375 28.03125 
L 16.796875 7.375 
L 52.484375 7.375 
z
" id="Roboto-Regular-32"/>
      </defs>
      <g transform="translate(407.78875 322.084)scale(0.1 -0.1)">
       <use xlink:href="#Roboto-Regular-31"/>
       <use x="56.152344" xlink:href="#Roboto-Regular-2e"/>
       <use x="82.470703" xlink:href="#Roboto-Regular-32"/>
      </g>
     </g>
    </g>
    <g id="text_8">
     <!-- Energy (keV) -->
     <defs>
      <path d="M 48.4375 32.859375 
L 17.625 32.859375 
L 17.625 7.671875 
L 53.421875 7.671875 
L 53.421875 0 
L 8.25 0 
L 8.25 71.09375 
L 52.9375 71.09375 
L 52.9375 63.375 
L 17.625 63.375 
L 17.625 40.53125 
L 48.4375 40.53125 
z
" id="Roboto-Regular-45"/>
      <path d="M 15.375 52.828125 
L 15.671875 46.1875 
Q 21.734375 53.8125 31.5 53.8125 
Q 48.25 53.8125 48.390625 34.90625 
L 48.390625 0 
L 39.359375 0 
L 39.359375 34.96875 
Q 39.3125 40.671875 36.75 43.40625 
Q 34.1875 46.140625 28.765625 46.140625 
Q 24.359375 46.140625 21.03125 43.796875 
Q 17.71875 41.453125 15.875 37.640625 
L 15.875 0 
L 6.84375 0 
L 6.84375 52.828125 
z
" id="Roboto-Regular-6e"/>
      <path d="M 28.765625 -0.984375 
Q 18.015625 -0.984375 11.28125 6.078125 
Q 4.546875 13.140625 4.546875 24.953125 
L 4.546875 26.609375 
Q 4.546875 34.46875 7.546875 40.640625 
Q 10.546875 46.828125 15.9375 50.3125 
Q 21.34375 53.8125 27.640625 53.8125 
Q 37.9375 53.8125 43.640625 47.015625 
Q 49.359375 40.234375 49.359375 27.59375 
L 49.359375 23.828125 
L 13.578125 23.828125 
Q 13.765625 16.015625 18.140625 11.203125 
Q 22.515625 6.390625 29.25 6.390625 
Q 34.03125 6.390625 37.34375 8.34375 
Q 40.671875 10.296875 43.171875 13.53125 
L 48.6875 9.234375 
Q 42.046875 -0.984375 28.765625 -0.984375 
z
M 27.640625 46.390625 
Q 22.171875 46.390625 18.453125 42.40625 
Q 14.75 38.421875 13.875 31.25 
L 40.328125 31.25 
L 40.328125 31.9375 
Q 39.9375 38.8125 36.609375 42.59375 
Q 33.296875 46.390625 27.640625 46.390625 
z
" id="Roboto-Regular-65"/>
      <path d="M 32.375 44.734375 
Q 30.328125 45.0625 27.9375 45.0625 
Q 19.046875 45.0625 15.875 37.5 
L 15.875 0 
L 6.84375 0 
L 6.84375 52.828125 
L 15.625 52.828125 
L 15.765625 46.734375 
Q 20.21875 53.8125 28.375 53.8125 
Q 31 53.8125 32.375 53.125 
z
" id="Roboto-Regular-72"/>
      <path d="M 4.6875 26.859375 
Q 4.6875 39.203125 10.390625 46.5 
Q 16.109375 53.8125 25.53125 53.8125 
Q 35.203125 53.8125 40.625 46.96875 
L 41.0625 52.828125 
L 49.3125 52.828125 
L 49.3125 1.265625 
Q 49.3125 -8.984375 43.234375 -14.890625 
Q 37.15625 -20.796875 26.90625 -20.796875 
Q 21.1875 -20.796875 15.71875 -18.359375 
Q 10.25 -15.921875 7.375 -11.671875 
L 12.0625 -6.25 
Q 17.875 -13.421875 26.265625 -13.421875 
Q 32.859375 -13.421875 36.546875 -9.703125 
Q 40.234375 -6 40.234375 0.734375 
L 40.234375 5.28125 
Q 34.8125 -0.984375 25.4375 -0.984375 
Q 16.15625 -0.984375 10.421875 6.484375 
Q 4.6875 13.96875 4.6875 26.859375 
z
M 13.765625 25.828125 
Q 13.765625 16.890625 17.421875 11.78125 
Q 21.09375 6.6875 27.6875 6.6875 
Q 36.234375 6.6875 40.234375 14.453125 
L 40.234375 38.578125 
Q 36.078125 46.140625 27.78125 46.140625 
Q 21.1875 46.140625 17.46875 41.015625 
Q 13.765625 35.890625 13.765625 25.828125 
z
" id="Roboto-Regular-67"/>
      <path d="M 24.125 13.234375 
L 36.421875 52.828125 
L 46.09375 52.828125 
L 24.859375 -8.15625 
Q 19.921875 -21.34375 9.1875 -21.34375 
L 7.46875 -21.1875 
L 4.109375 -20.5625 
L 4.109375 -13.234375 
L 6.546875 -13.421875 
Q 11.140625 -13.421875 13.703125 -11.5625 
Q 16.265625 -9.71875 17.921875 -4.78125 
L 19.921875 0.59375 
L 1.078125 52.828125 
L 10.9375 52.828125 
z
" id="Roboto-Regular-79"/>
      <path id="Roboto-Regular-20"/>
      <path d="M 6.5 28.859375 
Q 6.5 39.890625 9.453125 50.046875 
Q 12.40625 60.203125 18.265625 68.5 
Q 24.125 76.8125 30.421875 80.21875 
L 32.28125 74.265625 
Q 25.140625 68.796875 20.578125 57.5625 
Q 16.015625 46.34375 15.578125 32.421875 
L 15.53125 28.265625 
Q 15.53125 9.421875 22.40625 -4.4375 
Q 26.5625 -12.75 32.28125 -17.4375 
L 30.421875 -22.953125 
Q 23.921875 -19.34375 18.015625 -10.84375 
Q 6.5 5.765625 6.5 28.859375 
z
" id="Roboto-Regular-28"/>
      <path d="M 21.578125 24.46875 
L 15.921875 18.5625 
L 15.921875 0 
L 6.890625 0 
L 6.890625 75 
L 15.921875 75 
L 15.921875 29.640625 
L 20.75 35.453125 
L 37.203125 52.828125 
L 48.1875 52.828125 
L 27.640625 30.765625 
L 50.59375 0 
L 39.984375 0 
z
" id="Roboto-Regular-6b"/>
      <path d="M 31.78125 12.453125 
L 52.09375 71.09375 
L 62.359375 71.09375 
L 35.984375 0 
L 27.6875 0 
L 1.375 71.09375 
L 11.578125 71.09375 
z
" id="Roboto-Regular-56"/>
      <path d="M 27.6875 28.375 
Q 27.6875 17.484375 24.828125 7.5 
Q 21.96875 -2.484375 16.078125 -10.9375 
Q 10.203125 -19.390625 3.765625 -22.953125 
L 1.859375 -17.4375 
Q 9.375 -11.671875 13.9375 0.453125 
Q 18.5 12.59375 18.609375 27.390625 
L 18.609375 28.953125 
Q 18.609375 39.203125 16.453125 48.015625 
Q 14.3125 56.84375 10.46875 63.8125 
Q 6.640625 70.796875 1.859375 74.703125 
L 3.765625 80.21875 
Q 10.203125 76.65625 16.03125 68.3125 
Q 21.875 59.96875 24.78125 49.90625 
Q 27.6875 39.84375 27.6875 28.375 
z
" id="Roboto-Regular-29"/>
     </defs>
     <g transform="translate(207.996719 336.137125)scale(0.1 -0.1)">
      <use xlink:href="#Roboto-Regular-45"/>
      <use x="56.835938" xlink:href="#Roboto-Regular-6e"/>
      <use x="112.011719" xlink:href="#Roboto-Regular-65"/>
      <use x="164.990234" xlink:href="#Roboto-Regular-72"/>
      <use x="198.828125" xlink:href="#Roboto-Regular-67"/>
      <use x="254.931641" xlink:href="#Roboto-Regular-79"/>
      <use x="302.246094" xlink:href="#Roboto-Regular-20"/>
      <use x="327.001953" xlink:href="#Roboto-Regular-28"/>
      <use x="361.181641" xlink:href="#Roboto-Regular-6b"/>
      <use x="411.865234" xlink:href="#Roboto-Regular-65"/>
      <use x="464.84375" xlink:href="#Roboto-Regular-56"/>
      <use x="528.466797" xlink:href="#Roboto-Regular-29"/>
     </g>
    </g>
   </g>
   <g id="matplotlib.axis_2">
    <g id="ytick_1">
     <g id="line2d_8">
      <defs>
       <path d="M 0 0 
L -3.5 0 
" id="mdb80dd433b" style="stroke:#000000;stroke-width:0.8;"/>
      </defs>
      <g>
       <use style="stroke:#000000;stroke-width:0.8;" x="57.6" xlink:href="#mdb80dd433b" y="295.488"/>
      </g>
     </g>
     <g id="text_9">
      <!-- 0 -->
      <g transform="translate(44.984375 299.238)scale(0.1 -0.1)">
       <use xlink:href="#Roboto-Regular-30"/>
      </g>
     </g>
    </g>
    <g id="ytick_2">
     <g id="line2d_9">
      <g>
       <use style="stroke:#000000;stroke-width:0.8;" x="57.6" xlink:href="#mdb80dd433b" y="240.354364"/>
      </g>
     </g>
     <g id="text_10">
      <!-- 2 -->
      <g transform="translate(44.984375 244.104364)scale(0.1 -0.1)">
       <use xlink:href="#Roboto-Regular-32"/>
      </g>
     </g>
    </g>
    <g id="ytick_3">
     <g id="line2d_10">
      <g>
       <use style="stroke:#000000;stroke-width:0.8;" x="57.6" xlink:href="#mdb80dd433b" y="185.220728"/>
      </g>
     </g>
     <g id="text_11">
      <!-- 4 -->
      <defs>
       <path d="M 44.046875 23.875 
L 53.90625 23.875 
L 53.90625 16.5 
L 44.046875 16.5 
L 44.046875 0 
L 34.96875 0 
L 34.96875 16.5 
L 2.59375 16.5 
L 2.59375 21.828125 
L 34.421875 71.09375 
L 44.046875 71.09375 
z
M 12.84375 23.875 
L 34.96875 23.875 
L 34.96875 58.734375 
L 33.890625 56.78125 
z
" id="Roboto-Regular-34"/>
      </defs>
      <g transform="translate(44.984375 188.970728)scale(0.1 -0.1)">
       <use xlink:href="#Roboto-Regular-34"/>
      </g>
     </g>
    </g>
    <g id="ytick_4">
     <g id="line2d_11">
      <g>
       <use style="stroke:#000000;stroke-width:0.8;" x="57.6" xlink:href="#mdb80dd433b" y="130.087092"/>
      </g>
     </g>
     <g id="text_12">
      <!-- 6 -->
      <g transform="translate(44.984375 133.837092)scale(0.1 -0.1)">
       <use xlink:href="#Roboto-Regular-36"/>
      </g>
     </g>
    </g>
    <g id="ytick_5">
     <g id="line2d_12">
      <g>
       <use style="stroke:#000000;stroke-width:0.8;" x="57.6" xlink:href="#mdb80dd433b" y="74.953456"/>
      </g>
     </g>
     <g id="text_13">
      <!-- 8 -->
      <g transform="translate(44.984375 78.703456)scale(0.1 -0.1)">
       <use xlink:href="#Roboto-Regular-38"/>
      </g>
     </g>
    </g>
    <g id="text_14">
     <!-- Intensity (ph cm$^5$ s$^{-1}$ bin$^{-1}$) -->
     <defs>
      <path d="M 18.3125 0 
L 8.9375 0 
L 8.9375 71.09375 
L 18.3125 71.09375 
z
" id="Roboto-Regular-49"/>
      <path d="M 19.09375 65.625 
L 19.09375 52.828125 
L 28.953125 52.828125 
L 28.953125 45.84375 
L 19.09375 45.84375 
L 19.09375 13.09375 
Q 19.09375 9.90625 20.40625 8.3125 
Q 21.734375 6.734375 24.90625 6.734375 
Q 26.46875 6.734375 29.203125 7.328125 
L 29.203125 0 
Q 25.640625 -0.984375 22.265625 -0.984375 
Q 16.21875 -0.984375 13.140625 2.671875 
Q 10.0625 6.34375 10.0625 13.09375 
L 10.0625 45.84375 
L 0.4375 45.84375 
L 0.4375 52.828125 
L 10.0625 52.828125 
L 10.0625 65.625 
z
" id="Roboto-Regular-74"/>
      <path d="M 37.59375 14.015625 
Q 37.59375 17.671875 34.828125 19.703125 
Q 32.078125 21.734375 25.21875 23.1875 
Q 18.359375 24.65625 14.328125 26.703125 
Q 10.296875 28.765625 8.375 31.59375 
Q 6.453125 34.421875 6.453125 38.328125 
Q 6.453125 44.828125 11.9375 49.3125 
Q 17.4375 53.8125 25.984375 53.8125 
Q 34.96875 53.8125 40.546875 49.171875 
Q 46.140625 44.53125 46.140625 37.3125 
L 37.0625 37.3125 
Q 37.0625 41.015625 33.90625 43.703125 
Q 30.765625 46.390625 25.984375 46.390625 
Q 21.046875 46.390625 18.265625 44.234375 
Q 15.484375 42.09375 15.484375 38.625 
Q 15.484375 35.359375 18.0625 33.6875 
Q 20.65625 32.03125 27.421875 30.515625 
Q 34.1875 29 38.375 26.90625 
Q 42.578125 24.8125 44.59375 21.84375 
Q 46.625 18.890625 46.625 14.65625 
Q 46.625 7.5625 40.953125 3.28125 
Q 35.296875 -0.984375 26.265625 -0.984375 
Q 19.921875 -0.984375 15.03125 1.265625 
Q 10.15625 3.515625 7.390625 7.546875 
Q 4.640625 11.578125 4.640625 16.265625 
L 13.671875 16.265625 
Q 13.921875 11.71875 17.3125 9.046875 
Q 20.703125 6.390625 26.265625 6.390625 
Q 31.390625 6.390625 34.484375 8.46875 
Q 37.59375 10.546875 37.59375 14.015625 
z
" id="Roboto-Regular-73"/>
      <path d="M 16.65625 0 
L 7.625 0 
L 7.625 52.828125 
L 16.65625 52.828125 
z
M 6.890625 66.84375 
Q 6.890625 69.046875 8.234375 70.5625 
Q 9.578125 72.078125 12.203125 72.078125 
Q 14.84375 72.078125 16.203125 70.5625 
Q 17.578125 69.046875 17.578125 66.84375 
Q 17.578125 64.65625 16.203125 63.1875 
Q 14.84375 61.71875 12.203125 61.71875 
Q 9.578125 61.71875 8.234375 63.1875 
Q 6.890625 64.65625 6.890625 66.84375 
z
" id="Roboto-Regular-69"/>
      <path d="M 51.46875 25.828125 
Q 51.46875 13.765625 45.953125 6.390625 
Q 40.4375 -0.984375 31 -0.984375 
Q 21.390625 -0.984375 15.875 5.125 
L 15.875 -20.3125 
L 6.84375 -20.3125 
L 6.84375 52.828125 
L 15.09375 52.828125 
L 15.53125 46.96875 
Q 21.046875 53.8125 30.859375 53.8125 
Q 40.375 53.8125 45.921875 46.625 
Q 51.46875 39.453125 51.46875 26.65625 
z
M 42.4375 26.859375 
Q 42.4375 35.796875 38.625 40.96875 
Q 34.8125 46.140625 28.171875 46.140625 
Q 19.96875 46.140625 15.875 38.875 
L 15.875 13.625 
Q 19.921875 6.390625 28.265625 6.390625 
Q 34.765625 6.390625 38.59375 11.546875 
Q 42.4375 16.703125 42.4375 26.859375 
z
" id="Roboto-Regular-70"/>
      <path d="M 15.875 46.4375 
Q 21.875 53.8125 31.5 53.8125 
Q 48.25 53.8125 48.390625 34.90625 
L 48.390625 0 
L 39.359375 0 
L 39.359375 34.96875 
Q 39.3125 40.671875 36.75 43.40625 
Q 34.1875 46.140625 28.765625 46.140625 
Q 24.359375 46.140625 21.03125 43.796875 
Q 17.71875 41.453125 15.875 37.640625 
L 15.875 0 
L 6.84375 0 
L 6.84375 75 
L 15.875 75 
z
" id="Roboto-Regular-68"/>
      <path d="M 28.03125 6.390625 
Q 32.859375 6.390625 36.46875 9.3125 
Q 40.09375 12.25 40.484375 16.65625 
L 49.03125 16.65625 
Q 48.78125 12.109375 45.890625 8 
Q 43.015625 3.90625 38.203125 1.453125 
Q 33.40625 -0.984375 28.03125 -0.984375 
Q 17.234375 -0.984375 10.859375 6.21875 
Q 4.5 13.421875 4.5 25.921875 
L 4.5 27.4375 
Q 4.5 35.15625 7.328125 41.15625 
Q 10.15625 47.171875 15.453125 50.484375 
Q 20.75 53.8125 27.984375 53.8125 
Q 36.859375 53.8125 42.75 48.484375 
Q 48.640625 43.171875 49.03125 34.671875 
L 40.484375 34.671875 
Q 40.09375 39.796875 36.59375 43.09375 
Q 33.109375 46.390625 27.984375 46.390625 
Q 21.09375 46.390625 17.3125 41.421875 
Q 13.53125 36.46875 13.53125 27.09375 
L 13.53125 25.390625 
Q 13.53125 16.265625 17.28125 11.328125 
Q 21.046875 6.390625 28.03125 6.390625 
z
" id="Roboto-Regular-63"/>
      <path d="M 15.328125 52.828125 
L 15.578125 46.96875 
Q 21.390625 53.8125 31.25 53.8125 
Q 42.328125 53.8125 46.34375 45.3125 
Q 48.96875 49.125 53.1875 51.46875 
Q 57.421875 53.8125 63.1875 53.8125 
Q 80.5625 53.8125 80.859375 35.40625 
L 80.859375 0 
L 71.828125 0 
L 71.828125 34.859375 
Q 71.828125 40.53125 69.234375 43.328125 
Q 66.65625 46.140625 60.546875 46.140625 
Q 55.515625 46.140625 52.1875 43.140625 
Q 48.875 40.140625 48.34375 35.0625 
L 48.34375 0 
L 39.265625 0 
L 39.265625 34.625 
Q 39.265625 46.140625 27.984375 46.140625 
Q 19.09375 46.140625 15.828125 38.578125 
L 15.828125 0 
L 6.78125 0 
L 6.78125 52.828125 
z
" id="Roboto-Regular-6d"/>
      <path d="M 10.0625 35.640625 
L 13.671875 71.09375 
L 50.09375 71.09375 
L 50.09375 62.75 
L 21.34375 62.75 
L 19.1875 43.359375 
Q 24.421875 46.4375 31.0625 46.4375 
Q 40.765625 46.4375 46.484375 40.015625 
Q 52.203125 33.59375 52.203125 22.65625 
Q 52.203125 11.671875 46.265625 5.34375 
Q 40.328125 -0.984375 29.6875 -0.984375 
Q 20.265625 -0.984375 14.296875 4.234375 
Q 8.34375 9.46875 7.515625 18.703125 
L 16.0625 18.703125 
Q 16.890625 12.59375 20.40625 9.484375 
Q 23.921875 6.390625 29.6875 6.390625 
Q 35.984375 6.390625 39.578125 10.6875 
Q 43.171875 14.984375 43.171875 22.5625 
Q 43.171875 29.6875 39.28125 34 
Q 35.40625 38.328125 28.953125 38.328125 
Q 23.046875 38.328125 19.671875 35.75 
L 17.28125 33.796875 
z
" id="Roboto-Regular-35"/>
      <path d="M 48.96875 31.78125 
L 8.203125 31.78125 
L 8.203125 39.15625 
L 48.96875 39.15625 
z
" id="Roboto-Regular-2212"/>
      <path d="M 51.5625 25.828125 
Q 51.5625 13.71875 46 6.359375 
Q 40.4375 -0.984375 31.0625 -0.984375 
Q 21.046875 -0.984375 15.578125 6.109375 
L 15.140625 0 
L 6.84375 0 
L 6.84375 75 
L 15.875 75 
L 15.875 47.015625 
Q 21.34375 53.8125 30.953125 53.8125 
Q 40.578125 53.8125 46.0625 46.53125 
Q 51.5625 39.265625 51.5625 26.609375 
z
M 42.53125 26.859375 
Q 42.53125 36.078125 38.96875 41.109375 
Q 35.40625 46.140625 28.71875 46.140625 
Q 19.78125 46.140625 15.875 37.84375 
L 15.875 14.984375 
Q 20.015625 6.6875 28.8125 6.6875 
Q 35.296875 6.6875 38.90625 11.71875 
Q 42.53125 16.75 42.53125 26.859375 
z
" id="Roboto-Regular-62"/>
     </defs>
     <g transform="translate(38.684375 234.228)rotate(-90)scale(0.1 -0.1)">
      <use transform="translate(0 0.014063)" xlink:href="#Roboto-Regular-49"/>
      <use transform="translate(27.197266 0.014063)" xlink:href="#Roboto-Regular-6e"/>
      <use transform="translate(82.373047 0.014063)" xlink:href="#Roboto-Regular-74"/>
      <use transform="translate(115.039062 0.014063)" xlink:href="#Roboto-Regular-65"/>
      <use transform="translate(168.017578 0.014063)" xlink:href="#Roboto-Regular-6e"/>
      <use transform="translate(223.193359 0.014063)" xlink:href="#Roboto-Regular-73"/>
      <use transform="translate(274.755859 0.014063)" xlink:href="#Roboto-Regular-69"/>
      <use transform="translate(299.023438 0.014063)" xlink:href="#Roboto-Regular-74"/>
      <use transform="translate(331.689453 0.014063)" xlink:href="#Roboto-Regular-79"/>
      <use transform="translate(379.003906 0.014063)" xlink:href="#Roboto-Regular-20"/>
      <use transform="translate(403.759766 0.014063)" xlink:href="#Roboto-Regular-28"/>
      <use transform="translate(437.939453 0.014063)" xlink:href="#Roboto-Regular-70"/>
      <use transform="translate(494.042969 0.014063)" xlink:href="#Roboto-Regular-68"/>
      <use transform="translate(549.121094 0.014063)" xlink:href="#Roboto-Regular-20"/>
      <use transform="translate(573.876953 0.014063)" xlink:href="#Roboto-Regular-63"/>
      <use transform="translate(626.220703 0.014063)" xlink:href="#Roboto-Regular-6d"/>
      <use transform="translate(714.79168 36.99375)scale(0.7)" xlink:href="#Roboto-Regular-35"/>
      <use transform="translate(756.739727 0.014063)" xlink:href="#Roboto-Regular-20"/>
      <use transform="translate(781.495586 0.014063)" xlink:href="#Roboto-Regular-73"/>
      <use transform="translate(833.982578 36.99375)scale(0.7)" xlink:href="#Roboto-Regular-2212"/>
      <use transform="translate(873.972813 36.99375)scale(0.7)" xlink:href="#Roboto-Regular-31"/>
      <use transform="translate(915.920859 0.014063)" xlink:href="#Roboto-Regular-20"/>
      <use transform="translate(940.676719 0.014063)" xlink:href="#Roboto-Regular-62"/>
      <use transform="translate(996.780234 0.014063)" xlink:href="#Roboto-Regular-69"/>
      <use transform="translate(1021.047812 0.014063)" xlink:href="#Roboto-Regular-6e"/>
      <use transform="translate(1077.148086 36.99375)scale(0.7)" xlink:href="#Roboto-Regular-2212"/>
      <use transform="translate(1117.13832 36.99375)scale(0.7)" xlink:href="#Roboto-Regular-31"/>
      <use transform="translate(1159.086367 0.014063)" xlink:href="#Roboto-Regular-29"/>
     </g>
    </g>
    <g id="text_15">
     <!-- 1e−16 -->
     <g transform="translate(57.6 38.472)scale(0.1 -0.1)">
      <use xlink:href="#Roboto-Regular-31"/>
      <use x="56.152344" xlink:href="#Roboto-Regular-65"/>
      <use x="109.130859" xlink:href="#Roboto-Regular-2212"/>
      <use x="166.259766" xlink:href="#Roboto-Regular-31"/>
      <use x="222.412109" xlink:href="#Roboto-Regular-36"/>
     </g>
    </g>
   </g>
   <g id="line2d_13">
    <path clip-path="url(#pdbf367eb9d)" d="M 57.583269 295.487851 
L 57.66969 295.48784 
L 89.081315 295.419248 
L 89.183629 295.008244 
L 89.28605 295.008244 
L 89.388507 293.54528 
L 89.490999 293.54528 
L 89.490999 293.234258 
L 89.593562 293.706281 
L 89.696161 293.706281 
L 89.79883 295.079201 
L 89.901571 295.079201 
L 90.004347 295.407519 
L 160.981627 295.38944 
L 160.981627 295.220645 
L 161.125379 295.220645 
L 161.125379 294.630844 
L 161.269166 294.630844 
L 161.269166 293.569543 
L 161.413095 293.569543 
L 161.413095 292.801912 
L 161.557095 292.801912 
L 161.557095 293.161677 
L 161.701165 293.161677 
L 161.701165 294.222708 
L 161.845343 294.222708 
L 161.845343 294.994164 
L 161.989626 294.994164 
L 161.989626 295.269371 
L 162.133981 295.269371 
L 162.133981 295.390297 
L 186.29559 295.403564 
L 186.29559 295.220384 
L 186.455554 295.220384 
L 186.455554 294.872947 
L 186.615625 294.872947 
L 186.615625 294.61516 
L 186.775802 294.61516 
L 186.775802 294.737145 
L 186.936086 294.737145 
L 186.936086 295.08889 
L 187.096476 295.08889 
L 187.096476 295.332862 
L 187.417576 295.415637 
L 187.417576 295.453645 
L 197.921087 295.426602 
L 197.921087 295.299763 
L 198.08882 295.299763 
L 198.08882 295.055452 
L 198.256661 295.055452 
L 198.256661 294.872477 
L 198.592625 294.958481 
L 198.592625 295.205911 
L 198.76082 295.205911 
L 198.76082 295.374907 
L 204.546854 295.305413 
L 204.546854 295.076225 
L 204.719058 295.076225 
L 204.719058 294.903714 
L 205.063856 294.985083 
L 205.063856 295.218202 
L 205.236414 295.218202 
L 205.236414 295.376256 
L 208.362904 295.376619 
L 208.362904 295.244309 
L 209.062965 295.326128 
L 209.062965 295.416744 
L 210.821544 295.392208 
L 210.821544 295.285461 
L 211.528382 295.351149 
L 211.528382 295.423973 
L 224.781159 295.313314 
L 224.781159 295.312748 
L 238.543345 295.216294 
L 238.543345 295.133991 
L 238.739566 295.133991 
L 238.739566 294.824762 
L 238.93593 294.824762 
L 238.93593 294.194036 
L 239.132471 294.194036 
L 239.132471 293.704518 
L 239.329118 293.704518 
L 239.329118 293.935156 
L 239.525943 293.935156 
L 239.525943 294.588212 
L 239.722874 294.588212 
L 239.722874 295.011354 
L 239.919982 295.011354 
L 239.919982 295.151756 
L 244.69376 295.122109 
L 244.69376 294.933734 
L 244.894523 294.933734 
L 244.894523 294.786341 
L 245.296438 294.853796 
L 245.296438 295.046475 
L 245.497627 295.046475 
L 245.497627 295.169903 
L 248.533366 295.12463 
L 248.533366 295.030105 
L 248.736967 295.030105 
L 248.736967 294.684508 
L 248.94071 294.684508 
L 248.94071 293.956719 
L 249.144594 293.956719 
L 249.144594 293.388476 
L 249.348621 293.388476 
L 249.348621 293.669025 
L 249.552824 293.669025 
L 249.552824 294.441135 
L 249.75717 294.441135 
L 249.75717 294.935266 
L 249.961658 294.935266 
L 249.961658 295.100424 
L 250.576078 295.208824 
L 250.576078 295.219288 
L 287.322048 295.108406 
L 287.322048 295.107328 
L 297.047413 295.046847 
L 297.047413 294.983707 
L 297.288655 294.983707 
L 297.288655 294.845501 
L 297.530038 294.845501 
L 297.530038 294.732924 
L 298.013514 294.781893 
L 298.013514 294.924486 
L 298.4977 295.01314 
L 298.4977 295.04381 
L 299.955153 294.949536 
L 299.955153 294.895372 
L 300.442532 294.929246 
L 300.442532 295.009014 
L 305.608221 294.948218 
L 305.608221 294.86389 
L 305.856416 294.86389 
L 305.856416 294.718768 
L 306.104824 294.718768 
L 306.104824 294.580119 
L 307.100512 294.520436 
L 307.100512 294.289153 
L 307.349984 294.289153 
L 307.349984 293.72461 
L 307.599598 293.72461 
L 307.599598 292.588128 
L 307.849425 292.588128 
L 307.849425 289.033449 
L 308.099465 289.033449 
L 308.099465 278.851268 
L 308.349717 278.851268 
L 308.349717 263.529151 
L 308.600183 263.529151 
L 308.600183 256.419348 
L 308.850861 256.419348 
L 308.850861 265.924346 
L 309.101752 265.924346 
L 309.101752 280.937978 
L 309.352856 280.937978 
L 309.352856 289.352724 
L 309.604102 289.352724 
L 309.604102 292.394698 
L 309.855632 292.394698 
L 309.855632 293.831387 
L 310.107303 293.831387 
L 310.107303 294.400495 
L 310.359259 294.400495 
L 310.359259 294.635341 
L 310.611356 294.635341 
L 310.611356 294.752449 
L 311.116189 294.829529 
L 311.116189 294.881545 
L 312.635869 294.985164 
L 312.635869 294.993264 
L 338.296651 294.88719 
L 338.296651 294.87969 
L 339.124606 294.826192 
L 339.124606 294.663539 
L 339.401111 294.663539 
L 339.401111 294.286908 
L 339.677829 294.286908 
L 339.677829 293.972711 
L 339.95476 293.972711 
L 339.95476 294.111757 
L 340.231975 294.111757 
L 340.231975 294.50835 
L 340.509403 294.50835 
L 340.509403 294.744377 
L 341.064968 294.819492 
L 341.064968 294.856222 
L 349.801456 294.966248 
L 349.801456 294.975441 
L 367.406264 294.882958 
L 367.406264 294.863543 
L 370.433561 294.812087 
L 370.433561 294.749231 
L 370.737809 294.749231 
L 370.737809 294.582977 
L 371.042341 294.582977 
L 371.042341 294.435607 
L 371.652256 294.489162 
L 371.652256 294.654046 
L 385.673919 294.585129 
L 385.673919 294.456434 
L 386.948738 294.529503 
L 386.948738 294.605598 
L 393.394426 294.568536 
L 393.394426 294.474187 
L 395.024792 294.582291 
L 395.024792 294.598587 
L 404.634433 294.701057 
L 404.634433 294.72704 
L 414.513767 294.616006 
L 414.513767 294.613187 
L 414.859381 294.613187 
L 414.859381 294.613187 
" style="fill:none;stroke:#1f77b4;stroke-linecap:square;stroke-width:1.5;"/>
   </g>
   <g id="line2d_14">
    <path clip-path="url(#pdbf367eb9d)" d="M 57.583269 256.41884 
L 57.66969 256.418801 
L 88.570379 256.323048 
L 88.672481 256.247122 
L 88.979 256.141217 
L 89.081315 255.272525 
L 89.183629 255.272525 
L 89.28605 248.619024 
L 89.388507 248.619024 
L 89.490999 241.114547 
L 89.593562 241.114547 
L 89.696161 249.783557 
L 89.79883 249.783557 
L 89.901571 255.20466 
L 90.004347 255.20466 
L 90.107194 256.152698 
L 90.312994 256.254529 
L 90.415983 256.340774 
L 95.847747 256.265716 
L 95.95368 256.093783 
L 96.059685 256.093783 
L 96.165725 255.053274 
L 96.271835 255.053274 
L 96.378017 243.852684 
L 96.484234 243.852684 
L 96.590522 221.031924 
L 96.696846 221.031924 
L 96.803241 238.571385 
L 96.909706 238.571385 
L 97.016207 253.342663 
L 97.122779 253.342663 
L 97.229387 255.802234 
L 97.336065 255.802234 
L 97.442814 256.182335 
L 97.763382 256.290132 
L 97.870344 256.33059 
L 115.177325 256.288441 
L 115.177325 256.162685 
L 115.293866 256.162685 
L 115.293866 255.884134 
L 115.410478 255.884134 
L 115.410478 254.834728 
L 115.527161 254.834728 
L 115.527161 251.496953 
L 115.643914 251.496953 
L 115.643914 245.894975 
L 115.760739 245.894975 
L 115.760739 241.987531 
L 115.877635 241.987531 
L 115.877635 243.814823 
L 115.994566 243.814823 
L 115.994566 249.327545 
L 116.111568 249.327545 
L 116.111568 253.585248 
L 116.228677 253.585248 
L 116.228677 255.208844 
L 116.345821 255.208844 
L 116.345821 255.880572 
L 116.463 255.880572 
L 116.463 256.183101 
L 116.697643 256.288047 
L 116.697643 256.332519 
L 124.104501 256.249337 
L 124.104501 256.067845 
L 124.226115 256.067845 
L 124.226115 255.393223 
L 124.347835 255.393223 
L 124.347835 253.197665 
L 124.469591 253.197665 
L 124.469591 249.454315 
L 124.591418 249.454315 
L 124.591418 246.822352 
L 124.713316 246.822352 
L 124.713316 248.056003 
L 124.83532 248.056003 
L 124.83532 251.753562 
L 124.95736 251.753562 
L 124.95736 254.568437 
L 125.079471 254.568437 
L 125.079471 255.622194 
L 125.201653 255.622194 
L 125.201653 256.064101 
L 125.323905 256.064101 
L 125.323905 256.260223 
L 125.691089 256.357211 
L 125.691089 256.372409 
L 128.900239 256.303306 
L 128.900239 256.184641 
L 129.024656 256.184641 
L 129.024656 255.747125 
L 129.149108 255.747125 
L 129.149108 254.305427 
L 129.273666 254.305427 
L 129.273666 251.826602 
L 129.398261 251.826602 
L 129.398261 250.076096 
L 129.522961 250.076096 
L 129.522961 250.896535 
L 129.647697 250.896535 
L 129.647697 253.349096 
L 129.77254 253.349096 
L 129.77254 255.202568 
L 129.897453 255.202568 
L 129.897453 255.890099 
L 130.022402 255.890099 
L 130.022402 256.180199 
L 130.147457 256.180199 
L 130.147457 256.307487 
L 131.905824 256.247446 
L 131.905824 255.957693 
L 132.031979 255.957693 
L 132.031979 254.999761 
L 132.158205 254.999761 
L 132.158205 253.336268 
L 132.284502 253.336268 
L 132.284502 252.122117 
L 132.41087 252.122117 
L 132.41087 252.474863 
L 132.537309 252.474863 
L 132.537309 253.46545 
L 132.663818 253.46545 
L 132.663818 253.591701 
L 132.790399 253.591701 
L 132.790399 253.265632 
L 132.917086 253.265632 
L 132.917086 253.819891 
L 133.043809 253.819891 
L 133.043809 254.988699 
L 133.170638 254.988699 
L 133.170638 255.83228 
L 133.297538 255.83228 
L 133.297538 256.139871 
L 133.424474 256.139871 
L 133.424474 256.257737 
L 133.805813 256.167117 
L 133.805813 255.726931 
L 133.933068 255.726931 
L 133.933068 254.952052 
L 134.060429 254.952052 
L 134.060429 254.401362 
L 134.187826 254.401362 
L 134.187826 254.661079 
L 134.315329 254.661079 
L 134.315329 255.431893 
L 134.442868 255.431893 
L 134.442868 256.00244 
L 134.570513 256.00244 
L 134.570513 256.19088 
L 134.826016 256.185107 
L 134.826016 255.899001 
L 134.953874 255.899001 
L 134.953874 255.34656 
L 135.081803 255.34656 
L 135.081803 254.950689 
L 135.209838 254.950689 
L 135.209838 255.142916 
L 135.337909 255.142916 
L 135.337909 255.707453 
L 135.466086 255.707453 
L 135.466086 256.130636 
L 135.594299 256.130636 
L 135.594299 256.286855 
L 136.108037 256.393937 
L 136.108037 256.39872 
L 160.550976 256.322861 
L 160.550976 256.278066 
L 160.694444 256.278066 
L 160.694444 256.16221 
L 160.837982 256.16221 
L 160.837982 255.892688 
L 160.981627 255.892688 
L 160.981627 254.963822 
L 161.125379 254.963822 
L 161.125379 251.717341 
L 161.269166 251.717341 
L 161.269166 245.874073 
L 161.413095 245.874073 
L 161.413095 241.647319 
L 161.557095 241.647319 
L 161.557095 243.628539 
L 161.701165 243.628539 
L 161.701165 249.471278 
L 161.845343 249.471278 
L 161.845343 253.71933 
L 161.989626 253.71933 
L 161.989626 255.234614 
L 162.133981 255.234614 
L 162.133981 255.900079 
L 162.278407 255.900079 
L 162.278407 256.174737 
L 162.567577 256.2694 
L 162.567577 256.312022 
L 186.135732 256.254322 
L 186.135732 256.006631 
L 186.29559 256.006631 
L 186.29559 255.07547 
L 186.455554 255.07547 
L 186.455554 253.309718 
L 186.615625 253.309718 
L 186.615625 251.999653 
L 186.775802 251.999653 
L 186.775802 252.619558 
L 186.936086 252.619558 
L 186.936086 254.407064 
L 187.096476 254.407064 
L 187.096476 255.646819 
L 187.256973 255.646819 
L 187.256973 256.067229 
L 187.417576 256.067229 
L 187.417576 256.259966 
L 187.899987 256.366144 
L 187.899987 256.378842 
L 197.753495 256.300439 
L 197.753495 256.136375 
L 197.921087 256.136375 
L 197.921087 255.512223 
L 198.08882 255.512223 
L 198.08882 254.309137 
L 198.256661 254.309137 
L 198.256661 253.408228 
L 198.424572 253.408228 
L 198.424572 253.832788 
L 198.592625 253.832788 
L 198.592625 255.052813 
L 198.76082 255.052813 
L 198.76082 255.886333 
L 198.929086 255.886333 
L 198.929086 256.166589 
L 199.097493 256.166589 
L 199.097493 256.295277 
L 204.202766 256.291175 
L 204.202766 256.145079 
L 204.374757 256.145079 
L 204.374757 255.582359 
L 204.546854 255.582359 
L 204.546854 254.486308 
L 204.719058 254.486308 
L 204.719058 253.661312 
L 204.891404 253.661312 
L 204.891404 254.050648 
L 205.063856 254.050648 
L 205.063856 255.165745 
L 205.236414 255.165745 
L 205.236414 255.921668 
L 205.409079 255.921668 
L 205.409079 256.175716 
L 205.581886 256.175716 
L 205.581886 256.293333 
L 208.188216 256.247653 
L 208.188216 255.928945 
L 208.362904 255.928945 
L 208.362904 255.304699 
L 208.537733 255.304699 
L 208.537733 254.833238 
L 208.712704 254.833238 
L 208.712704 255.055324 
L 208.887781 255.055324 
L 208.887781 255.690757 
L 209.062965 255.690757 
L 209.062965 256.118859 
L 209.238255 256.118859 
L 209.238255 256.261549 
L 210.645154 256.265201 
L 210.645154 256.011639 
L 210.821544 256.011639 
L 210.821544 255.511972 
L 210.998076 255.511972 
L 210.998076 255.13347 
L 211.174715 255.13347 
L 211.174715 255.310944 
L 211.351495 255.310944 
L 211.351495 255.819118 
L 211.528382 255.819118 
L 211.528382 256.159189 
L 211.882546 256.267741 
L 211.882546 256.30602 
L 212.237206 256.280231 
L 212.237206 256.1068 
L 212.414696 256.1068 
L 212.414696 255.753578 
L 212.592328 255.753578 
L 212.592328 255.484618 
L 212.770101 255.484618 
L 212.770101 255.610891 
L 212.947981 255.610891 
L 212.947981 255.970319 
L 213.125968 255.970319 
L 213.125968 256.203644 
L 213.660708 256.158953 
L 213.660708 255.914097 
L 213.839227 255.914097 
L 213.839227 255.7224 
L 214.196583 255.817788 
L 214.196583 256.084461 
L 214.375457 256.084461 
L 214.375457 256.263115 
L 232.914259 256.249275 
L 232.914259 255.973288 
L 233.106401 255.973288 
L 233.106401 255.410481 
L 233.298685 255.410481 
L 233.298685 254.97341 
L 233.49111 254.97341 
L 233.49111 255.167097 
L 233.683678 255.167097 
L 233.683678 255.727283 
L 233.876352 255.727283 
L 233.876352 256.089578 
L 234.069203 256.089578 
L 234.069203 256.215935 
L 237.173732 256.150587 
L 237.173732 256.104562 
L 237.56433 256.042347 
L 237.56433 255.948032 
L 237.759842 255.948032 
L 237.759842 255.782543 
L 237.955496 255.782543 
L 237.955496 255.427499 
L 238.151328 255.427499 
L 238.151328 254.410153 
L 238.347265 254.410153 
L 238.347265 251.922095 
L 238.543345 251.922095 
L 238.543345 246.246226 
L 238.739566 246.246226 
L 238.739566 226.854639 
L 238.93593 226.854639 
L 238.93593 187.841615 
L 239.132471 187.841615 
L 239.132471 157.681568 
L 239.329118 157.681568 
L 239.329118 172.38654 
L 239.525943 172.38654 
L 239.525943 213.405513 
L 239.722874 213.405513 
L 239.722874 239.935557 
L 239.919982 239.935557 
L 239.919982 248.662779 
L 240.117197 248.662779 
L 240.117197 252.659229 
L 240.314589 252.659229 
L 240.314589 253.540934 
L 240.512124 253.540934 
L 240.512124 251.22612 
L 240.709764 251.22612 
L 240.709764 245.629192 
L 240.907582 245.629192 
L 240.907582 241.366744 
L 241.105542 241.366744 
L 241.105542 243.732528 
L 241.303644 243.732528 
L 241.303644 249.852571 
L 241.501888 249.852571 
L 241.501888 253.780657 
L 241.700309 253.780657 
L 241.700309 255.111565 
L 241.898836 255.111565 
L 241.898836 255.75499 
L 242.097506 255.75499 
L 242.097506 256.002623 
L 242.495341 256.097217 
L 242.495341 256.135804 
L 243.692289 256.080518 
L 243.692289 255.953534 
L 243.892271 255.953534 
L 243.892271 255.602272 
L 244.092431 255.602272 
L 244.092431 254.855426 
L 244.292732 254.855426 
L 244.292732 253.255352 
L 244.493175 253.255352 
L 244.493175 247.587047 
L 244.69376 247.587047 
L 244.69376 235.970796 
L 244.894523 235.970796 
L 244.894523 226.919271 
L 245.095392 226.919271 
L 245.095392 231.180425 
L 245.296438 231.180425 
L 245.296438 243.131403 
L 245.497627 243.131403 
L 245.497627 250.734293 
L 245.698957 250.734293 
L 245.698957 253.294295 
L 245.900464 253.294295 
L 245.900464 254.677519 
L 246.102078 254.677519 
L 246.102078 255.319117 
L 246.30387 255.319117 
L 246.30387 255.611996 
L 246.910131 255.591008 
L 246.910131 255.075116 
L 247.11249 255.075116 
L 247.11249 253.837478 
L 247.315026 253.837478 
L 247.315026 252.197102 
L 247.517704 252.197102 
L 247.517704 251.17591 
L 247.923522 251.135437 
L 247.923522 250.491001 
L 248.126662 250.491001 
L 248.126662 246.907436 
L 248.329943 246.907436 
L 248.329943 240.235013 
L 248.533366 240.235013 
L 248.533366 229.638378 
L 248.736967 229.638378 
L 248.736967 192.680108 
L 248.94071 192.680108 
L 248.94071 114.458734 
L 249.144594 114.458734 
L 249.144594 53.568 
L 249.348621 53.568 
L 249.348621 84.819129 
L 249.552824 84.819129 
L 249.552824 169.199292 
L 249.75717 169.199292 
L 249.75717 223.162495 
L 249.961658 223.162495 
L 249.961658 241.314587 
L 250.166323 241.314587 
L 250.166323 250.080965 
L 250.37113 250.080965 
L 250.37113 253.35506 
L 250.576078 253.35506 
L 250.576078 254.579338 
L 250.781169 254.579338 
L 250.781169 255.159266 
L 250.986437 255.159266 
L 250.986437 255.485291 
L 251.191847 255.485291 
L 251.191847 255.693033 
L 251.397399 255.693033 
L 251.397399 255.837855 
L 251.809 255.945144 
L 251.809 256.027733 
L 252.221203 256.092788 
L 252.221203 256.144762 
L 253.047491 256.248055 
L 253.047491 256.270347 
L 260.17199 256.381226 
L 260.17199 256.381593 
L 307.349984 256.276414 
L 307.349984 256.205734 
L 307.599598 256.205734 
L 307.599598 256.082483 
L 307.849425 256.082483 
L 307.849425 255.731253 
L 308.099465 255.731253 
L 308.099465 254.726735 
L 308.349717 254.726735 
L 308.349717 253.203597 
L 308.600183 253.203597 
L 308.600183 252.478896 
L 308.850861 252.478896 
L 308.850861 253.397655 
L 309.101752 253.397655 
L 309.101752 254.885121 
L 309.352856 254.885121 
L 309.352856 255.744969 
L 309.604102 255.744969 
L 309.604102 256.074916 
L 309.855632 256.074916 
L 309.855632 256.234891 
L 310.863666 256.342939 
L 310.863666 256.351922 
L 317.75636 256.308278 
L 317.75636 256.212272 
L 318.014631 256.212272 
L 318.014631 255.814294 
L 318.273114 255.814294 
L 318.273114 254.920659 
L 318.53181 254.920659 
L 318.53181 254.184221 
L 318.790719 254.184221 
L 318.790719 254.497187 
L 319.049911 254.497187 
L 319.049911 255.373693 
L 319.309246 255.373693 
L 319.309246 255.759695 
L 319.568793 255.759695 
L 319.568793 255.643991 
L 320.088598 255.567155 
L 320.088598 255.766226 
L 320.348855 255.766226 
L 320.348855 256.073374 
L 320.609324 256.073374 
L 320.609324 256.237814 
L 321.39194 256.214138 
L 321.39194 256.121805 
L 322.176613 256.183536 
L 322.176613 256.281224 
L 336.921433 256.172448 
L 336.921433 256.130342 
L 337.470825 256.075686 
L 337.470825 255.998572 
L 337.74584 255.998572 
L 337.74584 255.865695 
L 338.021139 255.865695 
L 338.021139 255.611646 
L 338.296651 255.611646 
L 338.296651 255.098873 
L 338.572376 255.098873 
L 338.572376 253.855903 
L 338.848385 253.855903 
L 338.848385 250.544799 
L 339.124606 250.544799 
L 339.124606 236.316516 
L 339.401111 236.316516 
L 339.401111 203.283624 
L 339.677829 203.283624 
L 339.677829 175.745944 
L 339.95476 175.745944 
L 339.95476 188.080597 
L 340.231975 188.080597 
L 340.231975 223.071371 
L 340.509403 223.071371 
L 340.509403 243.938629 
L 340.787043 243.938629 
L 340.787043 250.652644 
L 341.064968 250.652644 
L 341.064968 253.990731 
L 341.343105 253.990731 
L 341.343105 255.180801 
L 341.621526 255.180801 
L 341.621526 255.635207 
L 341.90016 255.635207 
L 341.90016 255.856659 
L 342.179007 255.856659 
L 342.179007 255.984882 
L 342.737481 256.06822 
L 342.737481 256.126059 
L 344.137958 256.07132 
L 344.137958 255.80311 
L 344.418792 255.80311 
L 344.418792 255.494201 
L 344.981168 255.447477 
L 344.981168 255.690514 
L 345.262782 255.690514 
L 345.262782 255.968085 
L 345.544609 255.968085 
L 345.544609 256.152184 
L 346.108901 256.257696 
L 346.108901 256.303476 
L 347.240607 256.235266 
L 347.240607 256.060915 
L 347.524137 256.060915 
L 347.524137 255.892645 
L 348.091977 255.893666 
L 348.091977 256.021 
L 348.376287 256.021 
L 348.376287 256.150625 
L 348.945617 256.251221 
L 348.945617 256.309117 
L 356.147596 256.201047 
L 356.147596 255.984779 
L 356.439002 255.984779 
L 356.439002 255.805421 
L 357.022593 255.866683 
L 357.022593 256.085358 
L 357.314779 256.085358 
L 357.314779 256.242516 
L 359.956231 256.18995 
L 359.956231 256.088208 
L 360.546067 256.101959 
L 360.546067 256.203518 
L 361.137037 256.284437 
L 361.137037 256.323448 
L 368.916507 256.219745 
L 368.916507 256.178598 
L 369.522519 256.104068 
L 369.522519 255.931433 
L 369.825916 255.931433 
L 369.825916 255.460366 
L 370.129596 255.460366 
L 370.129596 254.233465 
L 370.433561 254.233465 
L 370.433561 249.056115 
L 370.737809 249.056115 
L 370.737809 236.74544 
L 371.042341 236.74544 
L 371.042341 226.388442 
L 371.347156 226.388442 
L 371.347156 231.11425 
L 371.652256 231.11425 
L 371.652256 244.229244 
L 371.957568 244.229244 
L 371.957568 251.835671 
L 372.263235 251.835671 
L 372.263235 254.254361 
L 372.569115 254.254361 
L 372.569115 255.474107 
L 372.87535 255.474107 
L 372.87535 255.907713 
L 373.181797 255.907713 
L 373.181797 256.074928 
L 373.795544 256.157212 
L 373.795544 256.205342 
L 376.261954 256.314509 
L 376.261954 256.319523 
L 384.087117 256.224079 
L 384.087117 256.175497 
L 384.720944 256.065977 
L 384.720944 255.766128 
L 385.038318 255.766128 
L 385.038318 254.986536 
L 385.355977 254.986536 
L 385.355977 251.704401 
L 385.673919 251.704401 
L 385.673919 243.812935 
L 385.992215 243.812935 
L 385.992215 237.149847 
L 386.310725 237.149847 
L 386.310725 240.220655 
L 386.62959 240.220655 
L 386.62959 248.647698 
L 386.948738 248.647698 
L 386.948738 253.471919 
L 387.26817 253.471919 
L 387.26817 255.000249 
L 387.587886 255.000249 
L 387.587886 255.775553 
L 387.907956 255.775553 
L 387.907956 256.050225 
L 388.548878 256.155733 
L 388.548878 256.206733 
L 392.419881 256.169234 
L 392.419881 255.997308 
L 392.744422 255.997308 
L 392.744422 255.550436 
L 393.069246 255.550436 
L 393.069246 253.671266 
L 393.394426 253.671266 
L 393.394426 249.122856 
L 393.719889 249.122856 
L 393.719889 245.272211 
L 394.045636 245.272211 
L 394.045636 247.052534 
L 394.371737 247.052534 
L 394.371737 251.914543 
L 394.698123 251.914543 
L 394.698123 254.677448 
L 395.024792 254.677448 
L 395.024792 255.548875 
L 395.351816 255.548875 
L 395.351816 255.990179 
L 395.679124 255.990179 
L 395.679124 256.142926 
L 397.649428 256.101517 
L 397.649428 255.856689 
L 397.978936 255.856689 
L 397.978936 254.812808 
L 398.308727 254.812808 
L 398.308727 252.27515 
L 398.638802 252.27515 
L 398.638802 250.113548 
L 398.969232 250.113548 
L 398.969232 251.052676 
L 399.299946 251.052676 
L 399.299946 253.604568 
L 399.631014 253.604568 
L 399.631014 254.474798 
L 399.962366 254.474798 
L 399.962366 253.344539 
L 400.294002 253.344539 
L 400.294002 252.216925 
L 400.625993 252.216925 
L 400.625993 252.925928 
L 400.958268 252.925928 
L 400.958268 254.667178 
L 401.290897 254.667178 
L 401.290897 255.617536 
L 401.62381 255.617536 
L 401.62381 255.819188 
L 401.957078 255.819188 
L 401.957078 255.486764 
L 402.29063 255.486764 
L 402.29063 254.340981 
L 402.624537 254.340981 
L 402.624537 253.326443 
L 402.958727 253.326443 
L 402.958727 253.74197 
L 403.293201 253.74197 
L 403.293201 254.723911 
L 403.963214 254.699229 
L 403.963214 254.291962 
L 404.298681 254.291962 
L 404.298681 254.710188 
L 404.634433 254.710188 
L 404.634433 255.564379 
L 404.970539 255.564379 
L 404.970539 256.041286 
L 405.307 256.041286 
L 405.307 256.196014 
L 406.318227 256.304398 
L 406.318227 256.316801 
L 414.859381 256.33535 
L 414.859381 256.33535 
" style="fill:none;stroke:#ff7f0e;stroke-linecap:square;stroke-width:1.5;"/>
   </g>
   <g id="line2d_15">
    <path clip-path="url(#pdbf367eb9d)" d="M 57.583269 217.350572 
L 57.66969 217.350562 
L 89.183629 217.254803 
L 89.28605 216.679735 
L 89.388507 216.679735 
L 89.490999 216.033817 
L 89.593562 216.033817 
L 89.696161 216.78361 
L 89.79883 216.78361 
L 89.901571 217.248357 
L 161.125379 217.171921 
L 161.125379 216.781037 
L 161.269166 216.781037 
L 161.269166 216.077691 
L 161.413095 216.077691 
L 161.413095 215.568971 
L 161.557095 215.568971 
L 161.557095 215.80739 
L 161.701165 215.80739 
L 161.701165 216.51055 
L 161.845343 216.51055 
L 161.845343 217.021808 
L 161.989626 217.021808 
L 161.989626 217.204202 
L 162.278407 217.284367 
L 162.278407 217.317551 
L 186.29559 217.291223 
L 186.29559 217.165095 
L 186.455554 217.165095 
L 186.455554 216.925838 
L 186.615625 216.925838 
L 186.615625 216.748313 
L 186.936086 216.832327 
L 186.936086 217.074571 
L 187.096476 217.074571 
L 187.096476 217.242595 
L 198.08882 217.217712 
L 198.08882 217.047098 
L 198.256661 217.047098 
L 198.256661 216.919307 
L 198.592625 216.979291 
L 198.592625 217.151965 
L 198.76082 217.151965 
L 198.76082 217.269884 
L 204.546854 217.218975 
L 204.546854 217.057018 
L 204.719058 217.057018 
L 204.719058 216.935114 
L 205.063856 216.992608 
L 205.063856 217.157335 
L 205.236414 217.157335 
L 205.236414 217.269028 
L 208.537733 217.174994 
L 208.537733 217.104022 
L 208.887781 217.137486 
L 208.887781 217.233145 
L 238.739566 217.122595 
L 238.739566 217.086561 
L 239.132471 217.013088 
L 239.132471 216.955849 
L 239.722874 217.056132 
L 239.722874 217.104232 
L 249.144594 217.015836 
L 249.144594 216.974065 
L 249.961658 217.081294 
L 249.961658 217.092337 
L 284.76652 216.981302 
L 284.76652 216.980451 
L 305.608221 216.874139 
L 305.608221 216.853849 
L 306.851324 216.757787 
L 306.851324 216.726265 
L 307.349984 216.633147 
L 307.349984 216.402097 
L 307.599598 216.402097 
L 307.599598 215.839375 
L 307.849425 215.839375 
L 307.849425 213.903864 
L 308.099465 213.903864 
L 308.099465 208.353247 
L 308.349717 208.353247 
L 308.349717 200.058005 
L 308.600183 200.058005 
L 308.600183 196.274517 
L 308.850861 196.274517 
L 308.850861 201.481499 
L 309.101752 201.481499 
L 309.101752 209.570926 
L 309.352856 209.570926 
L 309.352856 214.026166 
L 309.604102 214.026166 
L 309.604102 215.600574 
L 309.855632 215.600574 
L 309.855632 216.332273 
L 310.107303 216.332273 
L 310.107303 216.603201 
L 310.611356 216.711247 
L 310.611356 216.765171 
L 313.144037 216.874689 
L 313.144037 216.876919 
L 335.825558 216.766221 
L 335.825558 216.764958 
L 371.957568 216.66199 
L 371.957568 216.653347 
L 380.935369 216.543493 
L 380.935369 216.541695 
L 414.859381 216.486494 
L 414.859381 216.486494 
" style="fill:none;stroke:#2ca02c;stroke-linecap:square;stroke-width:1.5;"/>
   </g>
   <g id="line2d_16">
    <path clip-path="url(#pdbf367eb9d)" d="M 57.583269 178.281919 
L 57.66969 178.28191 
L 89.183629 178.186151 
L 89.28605 177.611083 
L 89.388507 177.611083 
L 89.490999 176.965164 
L 89.593562 176.965164 
L 89.696161 177.714958 
L 89.79883 177.714958 
L 89.901571 178.179705 
L 161.125379 178.103269 
L 161.125379 177.712385 
L 161.269166 177.712385 
L 161.269166 177.009039 
L 161.413095 177.009039 
L 161.413095 176.500318 
L 161.557095 176.500318 
L 161.557095 176.738738 
L 161.701165 176.738738 
L 161.701165 177.441897 
L 161.845343 177.441897 
L 161.845343 177.953156 
L 161.989626 177.953156 
L 161.989626 178.13555 
L 162.278407 178.215714 
L 162.278407 178.248898 
L 186.29559 178.22257 
L 186.29559 178.096442 
L 186.455554 178.096442 
L 186.455554 177.857185 
L 186.615625 177.857185 
L 186.615625 177.679661 
L 186.936086 177.763675 
L 186.936086 178.005919 
L 187.096476 178.005919 
L 187.096476 178.173943 
L 198.08882 178.149059 
L 198.08882 177.978446 
L 198.256661 177.978446 
L 198.256661 177.850655 
L 198.592625 177.910638 
L 198.592625 178.083313 
L 198.76082 178.083313 
L 198.76082 178.201231 
L 204.546854 178.150322 
L 204.546854 177.988366 
L 204.719058 177.988366 
L 204.719058 177.866462 
L 205.063856 177.923955 
L 205.063856 178.088683 
L 205.236414 178.088683 
L 205.236414 178.200375 
L 208.537733 178.106342 
L 208.537733 178.03537 
L 208.887781 178.068833 
L 208.887781 178.164493 
L 238.739566 178.053943 
L 238.739566 178.017908 
L 239.132471 177.944436 
L 239.132471 177.887197 
L 239.722874 177.98748 
L 239.722874 178.035579 
L 249.144594 177.947184 
L 249.144594 177.905413 
L 249.961658 178.012642 
L 249.961658 178.023684 
L 284.76652 177.912649 
L 284.76652 177.911799 
L 305.608221 177.805487 
L 305.608221 177.785196 
L 306.851324 177.689134 
L 306.851324 177.657612 
L 307.349984 177.564494 
L 307.349984 177.333444 
L 307.599598 177.333444 
L 307.599598 176.770723 
L 307.849425 176.770723 
L 307.849425 174.835211 
L 308.099465 174.835211 
L 308.099465 169.284595 
L 308.349717 169.284595 
L 308.349717 160.989353 
L 308.600183 160.989353 
L 308.600183 157.205864 
L 308.850861 157.205864 
L 308.850861 162.412847 
L 309.101752 162.412847 
L 309.101752 170.502274 
L 309.352856 170.502274 
L 309.352856 174.957513 
L 309.604102 174.957513 
L 309.604102 176.531922 
L 309.855632 176.531922 
L 309.855632 177.263621 
L 310.107303 177.263621 
L 310.107303 177.534548 
L 310.611356 177.642594 
L 310.611356 177.696519 
L 313.144037 177.806037 
L 313.144037 177.808266 
L 335.825558 177.697568 
L 335.825558 177.696306 
L 371.957568 177.593338 
L 371.957568 177.584695 
L 380.935369 177.47484 
L 380.935369 177.473043 
L 414.859381 177.417842 
L 414.859381 177.417842 
" style="fill:none;stroke:#d62728;stroke-linecap:square;stroke-width:1.5;"/>
   </g>
   <g id="patch_3">
    <path d="M 57.6 307.584 
L 57.6 41.472 
" style="fill:none;stroke:#000000;stroke-linecap:square;stroke-linejoin:miter;stroke-width:0.8;"/>
   </g>
   <g id="patch_4">
    <path d="M 414.72 307.584 
L 414.72 41.472 
" style="fill:none;stroke:#000000;stroke-linecap:square;stroke-linejoin:miter;stroke-width:0.8;"/>
   </g>
   <g id="patch_5">
    <path d="M 57.6 307.584 
L 414.72 307.584 
" style="fill:none;stroke:#000000;stroke-linecap:square;stroke-linejoin:miter;stroke-width:0.8;"/>
   </g>
   <g id="patch_6">
    <path d="M 57.6 41.472 
L 414.72 41.472 
" style="fill:none;stroke:#000000;stroke-linecap:square;stroke-linejoin:miter;stroke-width:0.8;"/>
   </g>
   <g id="legend_1">
    <g id="patch_7">
     <path d="M 298.495 107.742312 
L 407.72 107.742312 
Q 409.72 107.742312 409.72 105.742312 
L 409.72 48.472 
Q 409.72 46.472 407.72 46.472 
L 298.495 46.472 
Q 296.495 46.472 296.495 48.472 
L 296.495 105.742312 
Q 296.495 107.742312 298.495 107.742312 
z
" style="fill:#ffffff;opacity:0.8;stroke:#cccccc;stroke-linejoin:miter;"/>
    </g>
    <g id="line2d_17">
     <path d="M 300.495 54.472 
L 320.495 54.472 
" style="fill:none;stroke:#1f77b4;stroke-linecap:square;stroke-width:1.5;"/>
    </g>
    <g id="line2d_18"/>
    <g id="text_16">
     <!-- mild recombining -->
     <defs>
      <path d="M 16.65625 0 
L 7.625 0 
L 7.625 75 
L 16.65625 75 
z
" id="Roboto-Regular-6c"/>
      <path d="M 4.640625 26.859375 
Q 4.640625 39.015625 10.390625 46.40625 
Q 16.15625 53.8125 25.484375 53.8125 
Q 34.765625 53.8125 40.1875 47.46875 
L 40.1875 75 
L 49.21875 75 
L 49.21875 0 
L 40.921875 0 
L 40.484375 5.671875 
Q 35.0625 -0.984375 25.390625 -0.984375 
Q 16.21875 -0.984375 10.421875 6.53125 
Q 4.640625 14.0625 4.640625 26.171875 
z
M 13.671875 25.828125 
Q 13.671875 16.84375 17.375 11.765625 
Q 21.09375 6.6875 27.640625 6.6875 
Q 36.234375 6.6875 40.1875 14.40625 
L 40.1875 38.671875 
Q 36.140625 46.140625 27.734375 46.140625 
Q 21.09375 46.140625 17.375 41.015625 
Q 13.671875 35.890625 13.671875 25.828125 
z
" id="Roboto-Regular-64"/>
      <path d="M 4.4375 26.90625 
Q 4.4375 34.671875 7.484375 40.875 
Q 10.546875 47.078125 15.984375 50.4375 
Q 21.4375 53.8125 28.421875 53.8125 
Q 39.203125 53.8125 45.875 46.34375 
Q 52.546875 38.875 52.546875 26.46875 
L 52.546875 25.828125 
Q 52.546875 18.109375 49.578125 11.984375 
Q 46.625 5.859375 41.125 2.4375 
Q 35.640625 -0.984375 28.515625 -0.984375 
Q 17.78125 -0.984375 11.109375 6.484375 
Q 4.4375 13.96875 4.4375 26.265625 
z
M 13.53125 25.828125 
Q 13.53125 17.046875 17.609375 11.71875 
Q 21.6875 6.390625 28.515625 6.390625 
Q 35.40625 6.390625 39.453125 11.78125 
Q 43.5 17.1875 43.5 26.90625 
Q 43.5 35.59375 39.375 40.984375 
Q 35.25 46.390625 28.421875 46.390625 
Q 21.734375 46.390625 17.625 41.0625 
Q 13.53125 35.75 13.53125 25.828125 
z
" id="Roboto-Regular-6f"/>
     </defs>
     <g transform="translate(328.495 57.972)scale(0.1 -0.1)">
      <use xlink:href="#Roboto-Regular-6d"/>
      <use x="87.646484" xlink:href="#Roboto-Regular-69"/>
      <use x="111.914062" xlink:href="#Roboto-Regular-6c"/>
      <use x="136.181641" xlink:href="#Roboto-Regular-64"/>
      <use x="192.578125" xlink:href="#Roboto-Regular-20"/>
      <use x="217.333984" xlink:href="#Roboto-Regular-72"/>
      <use x="251.171875" xlink:href="#Roboto-Regular-65"/>
      <use x="304.150391" xlink:href="#Roboto-Regular-63"/>
      <use x="356.494141" xlink:href="#Roboto-Regular-6f"/>
      <use x="413.525391" xlink:href="#Roboto-Regular-6d"/>
      <use x="501.171875" xlink:href="#Roboto-Regular-62"/>
      <use x="557.275391" xlink:href="#Roboto-Regular-69"/>
      <use x="581.542969" xlink:href="#Roboto-Regular-6e"/>
      <use x="636.71875" xlink:href="#Roboto-Regular-69"/>
      <use x="660.986328" xlink:href="#Roboto-Regular-6e"/>
      <use x="716.162109" xlink:href="#Roboto-Regular-67"/>
     </g>
    </g>
    <g id="line2d_19">
     <path d="M 300.495 69.051687 
L 320.495 69.051687 
" style="fill:none;stroke:#ff7f0e;stroke-linecap:square;stroke-width:1.5;"/>
    </g>
    <g id="line2d_20"/>
    <g id="text_17">
     <!-- ionizing -->
     <defs>
      <path d="M 15.328125 7.375 
L 46.234375 7.375 
L 46.234375 0 
L 4.296875 0 
L 4.296875 6.640625 
L 33.453125 45.359375 
L 4.734375 45.359375 
L 4.734375 52.828125 
L 44.78125 52.828125 
L 44.78125 46.4375 
z
" id="Roboto-Regular-7a"/>
     </defs>
     <g transform="translate(328.495 72.551687)scale(0.1 -0.1)">
      <use xlink:href="#Roboto-Regular-69"/>
      <use x="24.267578" xlink:href="#Roboto-Regular-6f"/>
      <use x="81.298828" xlink:href="#Roboto-Regular-6e"/>
      <use x="136.474609" xlink:href="#Roboto-Regular-69"/>
      <use x="160.742188" xlink:href="#Roboto-Regular-7a"/>
      <use x="210.302734" xlink:href="#Roboto-Regular-69"/>
      <use x="234.570312" xlink:href="#Roboto-Regular-6e"/>
      <use x="289.746094" xlink:href="#Roboto-Regular-67"/>
     </g>
    </g>
    <g id="line2d_21">
     <path d="M 300.495 83.631375 
L 320.495 83.631375 
" style="fill:none;stroke:#2ca02c;stroke-linecap:square;stroke-width:1.5;"/>
    </g>
    <g id="line2d_22"/>
    <g id="text_18">
     <!-- recombining -->
     <g transform="translate(328.495 87.131375)scale(0.1 -0.1)">
      <use xlink:href="#Roboto-Regular-72"/>
      <use x="33.837891" xlink:href="#Roboto-Regular-65"/>
      <use x="86.816406" xlink:href="#Roboto-Regular-63"/>
      <use x="139.160156" xlink:href="#Roboto-Regular-6f"/>
      <use x="196.191406" xlink:href="#Roboto-Regular-6d"/>
      <use x="283.837891" xlink:href="#Roboto-Regular-62"/>
      <use x="339.941406" xlink:href="#Roboto-Regular-69"/>
      <use x="364.208984" xlink:href="#Roboto-Regular-6e"/>
      <use x="419.384766" xlink:href="#Roboto-Regular-69"/>
      <use x="443.652344" xlink:href="#Roboto-Regular-6e"/>
      <use x="498.828125" xlink:href="#Roboto-Regular-67"/>
     </g>
    </g>
    <g id="line2d_23">
     <path d="M 300.495 98.211062 
L 320.495 98.211062 
" style="fill:none;stroke:#d62728;stroke-linecap:square;stroke-width:1.5;"/>
    </g>
    <g id="line2d_24"/>
    <g id="text_19">
     <!-- all H-like -->
     <defs>
      <path d="M 39.453125 0 
Q 38.671875 1.5625 38.1875 5.5625 
Q 31.890625 -0.984375 23.140625 -0.984375 
Q 15.328125 -0.984375 10.328125 3.4375 
Q 5.328125 7.859375 5.328125 14.65625 
Q 5.328125 22.90625 11.59375 27.46875 
Q 17.875 32.03125 29.25 32.03125 
L 38.03125 32.03125 
L 38.03125 36.1875 
Q 38.03125 40.921875 35.203125 43.71875 
Q 32.375 46.53125 26.859375 46.53125 
Q 22.015625 46.53125 18.75 44.09375 
Q 15.484375 41.65625 15.484375 38.1875 
L 6.390625 38.1875 
Q 6.390625 42.140625 9.203125 45.828125 
Q 12.015625 49.515625 16.8125 51.65625 
Q 21.625 53.8125 27.390625 53.8125 
Q 36.53125 53.8125 41.703125 49.234375 
Q 46.875 44.671875 47.078125 36.671875 
L 47.078125 12.359375 
Q 47.078125 5.078125 48.921875 0.78125 
L 48.921875 0 
z
M 24.46875 6.890625 
Q 28.71875 6.890625 32.515625 9.078125 
Q 36.328125 11.28125 38.03125 14.796875 
L 38.03125 25.640625 
L 30.953125 25.640625 
Q 14.359375 25.640625 14.359375 15.921875 
Q 14.359375 11.671875 17.1875 9.28125 
Q 20.015625 6.890625 24.46875 6.890625 
z
" id="Roboto-Regular-61"/>
      <path d="M 62.890625 0 
L 53.46875 0 
L 53.46875 32.859375 
L 17.625 32.859375 
L 17.625 0 
L 8.25 0 
L 8.25 71.09375 
L 17.625 71.09375 
L 17.625 40.53125 
L 53.46875 40.53125 
L 53.46875 71.09375 
L 62.890625 71.09375 
z
" id="Roboto-Regular-48"/>
      <path d="M 25.640625 26.515625 
L 1.8125 26.515625 
L 1.8125 33.890625 
L 25.640625 33.890625 
z
" id="Roboto-Regular-2d"/>
     </defs>
     <g transform="translate(328.495 101.711062)scale(0.1 -0.1)">
      <use xlink:href="#Roboto-Regular-61"/>
      <use x="54.394531" xlink:href="#Roboto-Regular-6c"/>
      <use x="78.662109" xlink:href="#Roboto-Regular-6c"/>
      <use x="102.929688" xlink:href="#Roboto-Regular-20"/>
      <use x="127.685547" xlink:href="#Roboto-Regular-48"/>
      <use x="198.974609" xlink:href="#Roboto-Regular-2d"/>
      <use x="226.5625" xlink:href="#Roboto-Regular-6c"/>
      <use x="250.830078" xlink:href="#Roboto-Regular-69"/>
      <use x="275.097656" xlink:href="#Roboto-Regular-6b"/>
      <use x="325.78125" xlink:href="#Roboto-Regular-65"/>
     </g>
    </g>
   </g>
  </g>
 </g>
 <defs>
  <clipPath id="pdbf367eb9d">
   <rect height="266.112" width="357.12" x="57.6" y="41.472"/>
  </clipPath>
 </defs>
</svg>
