<?xml version="1.0" encoding="UTF-8" standalone="no"?>
<!DOCTYPE svg PUBLIC "-//W3C//DTD SVG 1.1//EN"
 "http://www.w3.org/Graphics/SVG/1.1/DTD/svg11.dtd">
<!-- Generated by graphviz version 2.40.1 (20161225.0304)
 -->
<!-- Title: inheritance0be4f71e5d Pages: 1 -->
<svg width="540pt" height="249pt"
 viewBox="0.00 0.00 540.00 249.00" xmlns="http://www.w3.org/2000/svg" xmlns:xlink="http://www.w3.org/1999/xlink">
<g id="graph0" class="graph" transform="scale(1 1) rotate(0) translate(4 245)">
<title>inheritance0be4f71e5d</title>
<polygon fill="#ffffff" stroke="transparent" points="-4,4 -4,-245 536,-245 536,4 -4,4"/>
<!-- CGI -->
<g id="node1" class="node">
<title>CGI</title>
<g id="a_node1"><a xlink:title="WFIRST Coronagraph Instrument">
<polygon fill="none" stroke="#000000" stroke-width=".5" points="530.5,-241 476.5,-241 476.5,-222 530.5,-222 530.5,-241"/>
<text text-anchor="middle" x="503.5" y="-229" font-family="Vera Sans, DejaVu Sans, Liberation Sans, Arial, Helvetica, sans" font-size="10.00" fill="#000000">CGI</text>
</a>
</g>
</g>
<!-- WFIRSTInstrument -->
<g id="node2" class="node">
<title>WFIRSTInstrument</title>
<polygon fill="none" stroke="#000000" stroke-width=".5" points="439,-204 337,-204 337,-185 439,-185 439,-204"/>
<text text-anchor="middle" x="388" y="-192" font-family="Vera Sans, DejaVu Sans, Liberation Sans, Arial, Helvetica, sans" font-size="10.00" fill="#000000">WFIRSTInstrument</text>
</g>
<!-- WFIRSTInstrument&#45;&gt;CGI -->
<g id="edge1" class="edge">
<title>WFIRSTInstrument&#45;&gt;CGI</title>
<path fill="none" stroke="#000000" stroke-width=".5" d="M417.7441,-204.0284C434.0989,-209.2676 454.4077,-215.7735 471.1559,-221.1387"/>
<polygon fill="#000000" stroke="#000000" stroke-width=".5" points="470.9354,-222.9056 476.231,-222.7645 472.0032,-219.5725 470.9354,-222.9056"/>
</g>
<!-- WFI -->
<g id="node14" class="node">
<title>WFI</title>
<g id="a_node14"><a xlink:title="WFI represents the WFIRST wide field imager">
<polygon fill="none" stroke="#000000" stroke-width=".5" points="530.5,-204 476.5,-204 476.5,-185 530.5,-185 530.5,-204"/>
<text text-anchor="middle" x="503.5" y="-192" font-family="Vera Sans, DejaVu Sans, Liberation Sans, Arial, Helvetica, sans" font-size="10.00" fill="#000000">WFI</text>
</a>
</g>
</g>
<!-- WFIRSTInstrument&#45;&gt;WFI -->
<g id="edge10" class="edge">
<title>WFIRSTInstrument&#45;&gt;WFI</title>
<path fill="none" stroke="#000000" stroke-width=".5" d="M439.3326,-194.5C450.2093,-194.5 461.3935,-194.5 471.3161,-194.5"/>
<polygon fill="#000000" stroke="#000000" stroke-width=".5" points="471.3817,-196.2501 476.3816,-194.5 471.3816,-192.7501 471.3817,-196.2501"/>
</g>
<!-- Conf -->
<g id="node3" class="node">
<title>Conf</title>
<g id="a_node3"><a xlink:href="../api/webbpsf.Conf.html#webbpsf.Conf" xlink:title="Configuration parameters for `webbpsf`." target="_top">
<polygon fill="none" stroke="#000000" stroke-width=".5" points="259,-186 205,-186 205,-167 259,-167 259,-186"/>
<text text-anchor="middle" x="232" y="-174" font-family="Vera Sans, DejaVu Sans, Liberation Sans, Arial, Helvetica, sans" font-size="10.00" fill="#000000">Conf</text>
</a>
</g>
</g>
<!-- ConfigNamespace -->
<g id="node4" class="node">
<title>ConfigNamespace</title>
<g id="a_node4"><a xlink:title="A namespace of configuration items. &#160;Each subpackage with">
<polygon fill="none" stroke="#000000" stroke-width=".5" points="113,-186 14,-186 14,-167 113,-167 113,-186"/>
<text text-anchor="middle" x="63.5" y="-174" font-family="Vera Sans, DejaVu Sans, Liberation Sans, Arial, Helvetica, sans" font-size="10.00" fill="#000000">ConfigNamespace</text>
</a>
</g>
</g>
<!-- ConfigNamespace&#45;&gt;Conf -->
<g id="edge2" class="edge">
<title>ConfigNamespace&#45;&gt;Conf</title>
<path fill="none" stroke="#000000" stroke-width=".5" d="M113.1442,-176.5C141.0583,-176.5 175.107,-176.5 199.5952,-176.5"/>
<polygon fill="#000000" stroke="#000000" stroke-width=".5" points="199.67,-178.2501 204.6699,-176.5 199.6699,-174.7501 199.67,-178.2501"/>
</g>
<!-- FGS -->
<g id="node5" class="node">
<title>FGS</title>
<g id="a_node5"><a xlink:href="../_generated/webbpsf.webbpsf_core.FGS.html#webbpsf.webbpsf_core.FGS" xlink:title="A class modeling the optics of the FGS." target="_top">
<polygon fill="none" stroke="#000000" stroke-width=".5" points="530.5,-167 476.5,-167 476.5,-148 530.5,-148 530.5,-167"/>
<text text-anchor="middle" x="503.5" y="-155" font-family="Vera Sans, DejaVu Sans, Liberation Sans, Arial, Helvetica, sans" font-size="10.00" fill="#000000">FGS</text>
</a>
</g>
</g>
<!-- JWInstrument -->
<g id="node6" class="node">
<title>JWInstrument</title>
<g id="a_node6"><a xlink:href="../_generated/webbpsf.webbpsf_core.JWInstrument.html#webbpsf.webbpsf_core.JWInstrument" xlink:title="Superclass for all JWST instruments" target="_top">
<polygon fill="none" stroke="#000000" stroke-width=".5" points="427,-112 349,-112 349,-93 427,-93 427,-112"/>
<text text-anchor="middle" x="388" y="-100" font-family="Vera Sans, DejaVu Sans, Liberation Sans, Arial, Helvetica, sans" font-size="10.00" fill="#000000">JWInstrument</text>
</a>
</g>
</g>
<!-- JWInstrument&#45;&gt;FGS -->
<g id="edge3" class="edge">
<title>JWInstrument&#45;&gt;FGS</title>
<path fill="none" stroke="#000000" stroke-width=".5" d="M408.1186,-112.0803C427.7071,-121.4081 457.5268,-135.608 478.6012,-145.6434"/>
<polygon fill="#000000" stroke="#000000" stroke-width=".5" points="477.9577,-147.2753 483.2245,-147.845 479.4625,-144.1152 477.9577,-147.2753"/>
</g>
<!-- MIRI -->
<g id="node9" class="node">
<title>MIRI</title>
<g id="a_node9"><a xlink:href="../_generated/webbpsf.webbpsf_core.MIRI.html#webbpsf.webbpsf_core.MIRI" xlink:title="A class modeling the optics of MIRI, the Mid&#45;InfraRed Instrument." target="_top">
<polygon fill="none" stroke="#000000" stroke-width=".5" points="530.5,-130 476.5,-130 476.5,-111 530.5,-111 530.5,-130"/>
<text text-anchor="middle" x="503.5" y="-118" font-family="Vera Sans, DejaVu Sans, Liberation Sans, Arial, Helvetica, sans" font-size="10.00" fill="#000000">MIRI</text>
</a>
</g>
</g>
<!-- JWInstrument&#45;&gt;MIRI -->
<g id="edge5" class="edge">
<title>JWInstrument&#45;&gt;MIRI</title>
<path fill="none" stroke="#000000" stroke-width=".5" d="M427.103,-108.594C441.558,-110.8467 457.7591,-113.3715 471.5095,-115.5145"/>
<polygon fill="#000000" stroke="#000000" stroke-width=".5" points="471.247,-117.2446 476.4568,-116.2855 471.786,-113.7863 471.247,-117.2446"/>
</g>
<!-- NIRCam -->
<g id="node10" class="node">
<title>NIRCam</title>
<g id="a_node10"><a xlink:href="../_generated/webbpsf.webbpsf_core.NIRCam.html#webbpsf.webbpsf_core.NIRCam" xlink:title="A class modeling the optics of NIRCam." target="_top">
<polygon fill="none" stroke="#000000" stroke-width=".5" points="531,-93 476,-93 476,-74 531,-74 531,-93"/>
<text text-anchor="middle" x="503.5" y="-81" font-family="Vera Sans, DejaVu Sans, Liberation Sans, Arial, Helvetica, sans" font-size="10.00" fill="#000000">NIRCam</text>
</a>
</g>
</g>
<!-- JWInstrument&#45;&gt;NIRCam -->
<g id="edge6" class="edge">
<title>JWInstrument&#45;&gt;NIRCam</title>
<path fill="none" stroke="#000000" stroke-width=".5" d="M427.103,-96.0675C441.2001,-93.7485 456.9579,-91.1563 470.4837,-88.9312"/>
<polygon fill="#000000" stroke="#000000" stroke-width=".5" points="471.0934,-90.6046 475.743,-88.0661 470.5253,-87.151 471.0934,-90.6046"/>
</g>
<!-- NIRISS -->
<g id="node11" class="node">
<title>NIRISS</title>
<g id="a_node11"><a xlink:href="../_generated/webbpsf.webbpsf_core.NIRISS.html#webbpsf.webbpsf_core.NIRISS" xlink:title="A class modeling the optics of the Near&#45;IR Imager and Slit Spectrograph" target="_top">
<polygon fill="none" stroke="#000000" stroke-width=".5" points="530.5,-56 476.5,-56 476.5,-37 530.5,-37 530.5,-56"/>
<text text-anchor="middle" x="503.5" y="-44" font-family="Vera Sans, DejaVu Sans, Liberation Sans, Arial, Helvetica, sans" font-size="10.00" fill="#000000">NIRISS</text>
</a>
</g>
</g>
<!-- JWInstrument&#45;&gt;NIRISS -->
<g id="edge7" class="edge">
<title>JWInstrument&#45;&gt;NIRISS</title>
<path fill="none" stroke="#000000" stroke-width=".5" d="M407.8552,-92.8733C427.6431,-83.2791 458.0585,-68.5323 479.2602,-58.2527"/>
<polygon fill="#000000" stroke="#000000" stroke-width=".5" points="480.1684,-59.7572 483.9039,-56.0011 478.6414,-56.6079 480.1684,-59.7572"/>
</g>
<!-- NIRSpec -->
<g id="node12" class="node">
<title>NIRSpec</title>
<g id="a_node12"><a xlink:href="../_generated/webbpsf.webbpsf_core.NIRSpec.html#webbpsf.webbpsf_core.NIRSpec" xlink:title="A class modeling the optics of NIRSpec, in **imaging** mode." target="_top">
<polygon fill="none" stroke="#000000" stroke-width=".5" points="532,-19 475,-19 475,0 532,0 532,-19"/>
<text text-anchor="middle" x="503.5" y="-7" font-family="Vera Sans, DejaVu Sans, Liberation Sans, Arial, Helvetica, sans" font-size="10.00" fill="#000000">NIRSpec</text>
</a>
</g>
</g>
<!-- JWInstrument&#45;&gt;NIRSpec -->
<g id="edge8" class="edge">
<title>JWInstrument&#45;&gt;NIRSpec</title>
<path fill="none" stroke="#000000" stroke-width=".5" d="M398.034,-92.9802C413.8166,-78.2108 445.6718,-49.2173 475,-27.5 477.5308,-25.6259 480.257,-23.7444 482.9845,-21.9413"/>
<polygon fill="#000000" stroke="#000000" stroke-width=".5" points="483.997,-23.3706 487.2439,-19.1849 482.0954,-20.4322 483.997,-23.3706"/>
</g>
<!-- Instrument -->
<g id="node7" class="node">
<title>Instrument</title>
<g id="a_node7"><a xlink:href="../_generated/poppy.instrument.Instrument.html#poppy.instrument.Instrument" xlink:title="A generic astronomical instrument, composed of" target="_top">
<polygon fill="none" stroke="#000000" stroke-width=".5" points="95.5,-149 31.5,-149 31.5,-130 95.5,-130 95.5,-149"/>
<text text-anchor="middle" x="63.5" y="-137" font-family="Vera Sans, DejaVu Sans, Liberation Sans, Arial, Helvetica, sans" font-size="10.00" fill="#000000">Instrument</text>
</a>
</g>
</g>
<!-- SpaceTelescopeInstrument -->
<g id="node8" class="node">
<title>SpaceTelescopeInstrument</title>
<g id="a_node8"><a xlink:title="A generic Space Telescope Instrument class.">
<polygon fill="none" stroke="#000000" stroke-width=".5" points="301,-149 163,-149 163,-130 301,-130 301,-149"/>
<text text-anchor="middle" x="232" y="-137" font-family="Vera Sans, DejaVu Sans, Liberation Sans, Arial, Helvetica, sans" font-size="10.00" fill="#000000">SpaceTelescopeInstrument</text>
</a>
</g>
</g>
<!-- Instrument&#45;&gt;SpaceTelescopeInstrument -->
<g id="edge9" class="edge">
<title>Instrument&#45;&gt;SpaceTelescopeInstrument</title>
<path fill="none" stroke="#000000" stroke-width=".5" d="M95.5902,-139.5C113.1816,-139.5 135.7749,-139.5 157.4928,-139.5"/>
<polygon fill="#000000" stroke="#000000" stroke-width=".5" points="157.6962,-141.2501 162.6962,-139.5 157.6962,-137.7501 157.6962,-141.2501"/>
</g>
<!-- SpaceTelescopeInstrument&#45;&gt;WFIRSTInstrument -->
<g id="edge11" class="edge">
<title>SpaceTelescopeInstrument&#45;&gt;WFIRSTInstrument</title>
<path fill="none" stroke="#000000" stroke-width=".5" d="M269.8592,-149.0191C280.0476,-151.8264 291.0104,-155.0725 301,-158.5 321.9164,-165.6766 345.0215,-175.3214 362.1611,-182.8217"/>
<polygon fill="#000000" stroke="#000000" stroke-width=".5" points="361.549,-184.4643 366.8303,-184.8765 362.9588,-181.2607 361.549,-184.4643"/>
</g>
<!-- SpaceTelescopeInstrument&#45;&gt;JWInstrument -->
<g id="edge4" class="edge">
<title>SpaceTelescopeInstrument&#45;&gt;JWInstrument</title>
<path fill="none" stroke="#000000" stroke-width=".5" d="M272.1739,-129.9716C294.0794,-124.776 321.2367,-118.3349 343.7479,-112.9957"/>
<polygon fill="#000000" stroke="#000000" stroke-width=".5" points="344.3104,-114.6609 348.7715,-111.8042 343.5026,-111.2554 344.3104,-114.6609"/>
</g>
<!-- UnsupportedPythonError -->
<g id="node13" class="node">
<title>UnsupportedPythonError</title>
<g id="a_node13"><a xlink:href="../api/webbpsf.UnsupportedPythonError.html#webbpsf.UnsupportedPythonError" xlink:title="UnsupportedPythonError" target="_top">
<polygon fill="none" stroke="#000000" stroke-width=".5" points="127,-223 0,-223 0,-204 127,-204 127,-223"/>
<text text-anchor="middle" x="63.5" y="-211" font-family="Vera Sans, DejaVu Sans, Liberation Sans, Arial, Helvetica, sans" font-size="10.00" fill="#000000">UnsupportedPythonError</text>
</a>
</g>
</g>
</g>
</svg>
